<svg width="14" height="9" viewBox="0 0 14 9" fill="none" xmlns="http://www.w3.org/2000/svg">
<path d="M12.9747 1.52506C12.9075 1.25629 12.7705 1.01002 12.5776 0.811081C12.3848 0.612145 12.1429 0.46758 11.8764 0.391968C10.901 0.153839 7.00176 0.153839 7.00176 0.153839C7.00176 0.153839 3.10339 0.153839 2.12847 0.414375C1.86166 0.490175 1.61958 0.635071 1.42672 0.834415C1.23385 1.03376 1.09703 1.28049 1.03009 1.54966C0.851744 2.53882 0.764534 3.54226 0.769554 4.54736C0.763157 5.55994 0.850374 6.57094 1.03009 7.56746C1.10426 7.82789 1.24429 8.06481 1.43669 8.25535C1.62908 8.4459 1.86734 8.58365 2.12847 8.6553C3.10295 8.91583 7.00132 8.91583 7.00132 8.91583C7.00132 8.91583 10.8997 8.91583 11.8742 8.6553C12.1407 8.57968 12.3826 8.43512 12.5754 8.23618C12.7683 8.03725 12.9053 7.79098 12.9725 7.52221C13.1486 6.54047 13.2349 5.54475 13.2304 4.54736C13.2368 3.53478 13.1496 2.52378 12.9699 1.52725L12.9747 1.52506Z" fill="white"/>
</svg>
